<?xml version="1.0" encoding="UTF-8"?><svg id="uuid-e634f309-b406-43f0-9768-c80229a5472d" xmlns="http://www.w3.org/2000/svg" xmlns:xlink="http://www.w3.org/1999/xlink" viewBox="0 0 1768.09 1768.09"><defs><style>.uuid-23ffc822-65f9-42e4-b2e3-7dcb17b0fcee{clip-path:url(#uuid-7b71f66d-7b72-4391-93c5-6e5e4bf234a3);}.uuid-5e74a752-a3b0-49be-8006-b249e2c26a26,.uuid-f8fb03cf-a1bb-4354-be5e-3f753195ca27,.uuid-23fcb8ee-b86e-42be-932e-1f62f6513a15,.uuid-1306ec17-7d26-4886-a2b7-30eadb16cda4{fill:none;}.uuid-5e74a752-a3b0-49be-8006-b249e2c26a26,.uuid-5b00cc5b-10d9-4d09-808b-c66149f89b2b,.uuid-88d5b4eb-8bec-4c8e-b5eb-06fd97ce167d,.uuid-322edee2-666d-4c58-bb2e-2633d7eb305d{stroke-width:0px;}.uuid-54a7d7b4-0a67-494d-befa-e7dc97b9df51{clip-path:url(#uuid-41988782-1b57-4433-837e-c6c289d4435f);}.uuid-a357423c-16e6-4475-ae2d-c9e43a0ee55a,.uuid-f8fb03cf-a1bb-4354-be5e-3f753195ca27,.uuid-23fcb8ee-b86e-42be-932e-1f62f6513a15,.uuid-1306ec17-7d26-4886-a2b7-30eadb16cda4,.uuid-5099fd13-9c83-49dc-a29f-546d0a588a30{stroke-width:4px;}.uuid-a357423c-16e6-4475-ae2d-c9e43a0ee55a,.uuid-f8fb03cf-a1bb-4354-be5e-3f753195ca27,.uuid-23fcb8ee-b86e-42be-932e-1f62f6513a15,.uuid-5099fd13-9c83-49dc-a29f-546d0a588a30{stroke:#000;}.uuid-a357423c-16e6-4475-ae2d-c9e43a0ee55a,.uuid-f8fb03cf-a1bb-4354-be5e-3f753195ca27,.uuid-1306ec17-7d26-4886-a2b7-30eadb16cda4,.uuid-5099fd13-9c83-49dc-a29f-546d0a588a30{stroke-linecap:round;stroke-linejoin:round;}.uuid-a357423c-16e6-4475-ae2d-c9e43a0ee55a,.uuid-322edee2-666d-4c58-bb2e-2633d7eb305d{fill:#fff;}.uuid-e6588fdc-53a9-4252-82f7-03d993e5096a{clip-path:url(#uuid-89f07375-c09b-41d2-9e18-259a5436b94b);}.uuid-23fcb8ee-b86e-42be-932e-1f62f6513a15{stroke-miterlimit:10;}.uuid-1306ec17-7d26-4886-a2b7-30eadb16cda4{stroke:#c9cfff;}.uuid-5b00cc5b-10d9-4d09-808b-c66149f89b2b{fill:url(#uuid-2801b115-385a-4360-9a5d-553f893bc92f);}.uuid-487ed577-9d5a-4ae4-9e90-f06e485270c8{clip-path:url(#uuid-f912088d-efa2-42dd-a026-56c02229c597);}</style><radialGradient id="uuid-2801b115-385a-4360-9a5d-553f893bc92f" cx="884.04" cy="884.04" fx="884.04" fy="884.04" r="884.04" gradientUnits="userSpaceOnUse"><stop offset="0" stop-color="#7888ff"/><stop offset=".17" stop-color="#7888ff" stop-opacity=".99"/><stop offset=".3" stop-color="#7888ff" stop-opacity=".95"/><stop offset=".42" stop-color="#7888ff" stop-opacity=".88"/><stop offset=".53" stop-color="#7888ff" stop-opacity=".79"/><stop offset=".64" stop-color="#7888ff" stop-opacity=".67"/><stop offset=".74" stop-color="#7888ff" stop-opacity=".53"/><stop offset=".84" stop-color="#7888ff" stop-opacity=".35"/><stop offset=".93" stop-color="#7888ff" stop-opacity=".16"/><stop offset="1" stop-color="#7888ff" stop-opacity="0"/></radialGradient><clipPath id="uuid-f912088d-efa2-42dd-a026-56c02229c597"><circle class="uuid-5e74a752-a3b0-49be-8006-b249e2c26a26" cx="825.6" cy="874.32" r="18.77"/></clipPath><clipPath id="uuid-41988782-1b57-4433-837e-c6c289d4435f"><circle class="uuid-5e74a752-a3b0-49be-8006-b249e2c26a26" cx="896.15" cy="906.25" r="14.25"/></clipPath><clipPath id="uuid-89f07375-c09b-41d2-9e18-259a5436b94b"><circle class="uuid-5e74a752-a3b0-49be-8006-b249e2c26a26" cx="907.23" cy="837.51" r="23.34"/></clipPath><clipPath id="uuid-7b71f66d-7b72-4391-93c5-6e5e4bf234a3"><circle class="uuid-5e74a752-a3b0-49be-8006-b249e2c26a26" cx="519.63" cy="724.26" r="15.66"/></clipPath></defs><g id="uuid-135b2d97-5d12-4303-adfe-90ed8af0252f"><circle id="uuid-7d78529d-87f2-4d54-8fa6-d061631c88ae" class="uuid-5b00cc5b-10d9-4d09-808b-c66149f89b2b" cx="884.04" cy="884.04" r="884.04"/><circle class="uuid-1306ec17-7d26-4886-a2b7-30eadb16cda4" cx="884.05" cy="884.04" r="284.48"/><circle class="uuid-1306ec17-7d26-4886-a2b7-30eadb16cda4" cx="884.05" cy="884.04" r="420.2"/><circle class="uuid-1306ec17-7d26-4886-a2b7-30eadb16cda4" cx="884.05" cy="884.04" r="562.77"/><circle class="uuid-a357423c-16e6-4475-ae2d-c9e43a0ee55a" cx="635.59" cy="1028.11" r="21.76"/><line class="uuid-f8fb03cf-a1bb-4354-be5e-3f753195ca27" x1="686.83" y1="1033.2" x2="647.49" y2="1009.89"/><line class="uuid-f8fb03cf-a1bb-4354-be5e-3f753195ca27" x1="630.51" y1="1079.37" x2="615.37" y2="1036.23"/><line class="uuid-f8fb03cf-a1bb-4354-be5e-3f753195ca27" x1="667.27" y1="1068.02" x2="639.53" y2="1031.66"/><circle class="uuid-a357423c-16e6-4475-ae2d-c9e43a0ee55a" cx="1283.97" cy="1014.99" r="21.76"/><line class="uuid-f8fb03cf-a1bb-4354-be5e-3f753195ca27" x1="1305.95" y1="1061.55" x2="1305.73" y2="1015.83"/><line class="uuid-f8fb03cf-a1bb-4354-be5e-3f753195ca27" x1="1237.4" y1="1036.97" x2="1266.62" y2="1001.81"/><line class="uuid-f8fb03cf-a1bb-4354-be5e-3f753195ca27" x1="1266.03" y1="1062.67" x2="1282.96" y2="1020.19"/><circle class="uuid-a357423c-16e6-4475-ae2d-c9e43a0ee55a" cx="1062.24" cy="349.48" r="21.76"/><line class="uuid-f8fb03cf-a1bb-4354-be5e-3f753195ca27" x1="1108.91" y1="327.73" x2="1063.18" y2="327.73"/><line class="uuid-f8fb03cf-a1bb-4354-be5e-3f753195ca27" x1="1084" y1="396.16" x2="1048.98" y2="366.77"/><line class="uuid-f8fb03cf-a1bb-4354-be5e-3f753195ca27" x1="1109.83" y1="367.66" x2="1067.44" y2="350.53"/><circle class="uuid-5099fd13-9c83-49dc-a29f-546d0a588a30" cx="884.05" cy="884.04" r="105.95"/><path class="uuid-322edee2-666d-4c58-bb2e-2633d7eb305d" d="M968.16,852.88c0-16.37-3.94-31.81-10.92-45.44-19.02-18.18-44.8-29.34-73.19-29.34-58.51,0-105.95,47.44-105.95,105.95,0,4.41.27,8.75.8,13.01,16.3,32.94,50.24,55.6,89.48,55.6,55.11,0,99.78-44.67,99.78-99.78Z"/><circle class="uuid-5e74a752-a3b0-49be-8006-b249e2c26a26" cx="884.05" cy="884.04" r="105.95"/><circle class="uuid-f8fb03cf-a1bb-4354-be5e-3f753195ca27" cx="884.05" cy="884.04" r="105.95"/><line class="uuid-f8fb03cf-a1bb-4354-be5e-3f753195ca27" x1="892.22" y1="690.64" x2="857.93" y2="826.11"/><polygon class="uuid-a357423c-16e6-4475-ae2d-c9e43a0ee55a" points="983.3 777.43 872.33 749.33 884.24 702.29 995.21 730.39 973.57 749.94 983.3 777.43"/><path class="uuid-88d5b4eb-8bec-4c8e-b5eb-06fd97ce167d" d="M892.21,742.7c-2.56-.65-4.42-1.86-5.57-3.63s-1.43-3.84-.83-6.21l5.02,1.27c-.26,1.03-.17,1.92.28,2.69.45.77,1.18,1.28,2.21,1.54s1.91.17,2.67-.27c.75-.44,1.26-1.17,1.52-2.2l3.15-12.44-5.52-1.4,1.19-4.68,10.53,2.67-4.33,17.12c-.6,2.36-1.82,4.04-3.66,5.03-1.84.99-4.05,1.16-6.64.51Z"/><path class="uuid-88d5b4eb-8bec-4c8e-b5eb-06fd97ce167d" d="M913.29,748c-2.47-.63-4.26-1.79-5.36-3.49-1.1-1.7-1.35-3.71-.77-6.03l4.37-17.25,5.02,1.27-4.36,17.22c-.26,1.03-.2,1.88.19,2.56.39.68,1.06,1.14,2.02,1.38.94.24,1.74.15,2.41-.26.67-.41,1.14-1.13,1.4-2.15l4.36-17.22,5.02,1.27-4.37,17.25c-.58,2.3-1.76,3.94-3.54,4.92-1.78.98-3.91,1.16-6.38.54Z"/><path class="uuid-88d5b4eb-8bec-4c8e-b5eb-06fd97ce167d" d="M925.41,750.72l6.18-24.41,5.85,1.48,1.54,20.49c.14-.84.31-1.81.49-2.92.18-1.1.39-2.2.6-3.3.22-1.09.42-2.02.62-2.78l2.54-10.03,4.41,1.12-6.18,24.41-5.85-1.48-1.47-20.48c-.11.73-.26,1.59-.44,2.59-.18,1-.37,2.01-.57,3.02-.2,1.02-.4,1.92-.59,2.7l-2.71,10.7-4.41-1.12Z"/><path class="uuid-88d5b4eb-8bec-4c8e-b5eb-06fd97ce167d" d="M953.42,758.16c-1.63-.41-2.97-1.08-4.01-1.99-1.05-.92-1.76-2.01-2.14-3.28-.38-1.27-.38-2.64,0-4.11l2.62-10.37c.37-1.47,1.03-2.68,1.96-3.61.94-.94,2.09-1.56,3.44-1.87,1.36-.31,2.85-.26,4.48.16s2.99,1.08,4.03,2c1.04.91,1.75,2.01,2.12,3.28.38,1.27.38,2.64,0,4.11l-2.62,10.37c-.37,1.47-1.03,2.68-1.96,3.61-.94.94-2.08,1.56-3.43,1.87-1.35.31-2.85.26-4.5-.16ZM954.52,753.82c1,.25,1.82.18,2.46-.21.63-.4,1.07-1.07,1.32-2.03l2.62-10.37c.25-.98.19-1.79-.17-2.43-.36-.64-1.05-1.09-2.08-1.34-1.03-.26-1.85-.2-2.47.19s-1.05,1.07-1.3,2.05l-2.62,10.37c-.24.96-.18,1.76.19,2.41.37.65,1.06,1.1,2.06,1.36Z"/><circle class="uuid-23fcb8ee-b86e-42be-932e-1f62f6513a15" cx="825.6" cy="874.32" r="18.77"/><g class="uuid-487ed577-9d5a-4ae4-9e90-f06e485270c8"><circle class="uuid-88d5b4eb-8bec-4c8e-b5eb-06fd97ce167d" cx="837.42" cy="881.07" r="18.77"/></g><circle class="uuid-23fcb8ee-b86e-42be-932e-1f62f6513a15" cx="896.15" cy="906.25" r="14.25"/><g class="uuid-54a7d7b4-0a67-494d-befa-e7dc97b9df51"><circle class="uuid-88d5b4eb-8bec-4c8e-b5eb-06fd97ce167d" cx="905.12" cy="911.37" r="14.25"/></g><circle class="uuid-23fcb8ee-b86e-42be-932e-1f62f6513a15" cx="907.23" cy="837.51" r="23.34"/><g class="uuid-e6588fdc-53a9-4252-82f7-03d993e5096a"><circle class="uuid-88d5b4eb-8bec-4c8e-b5eb-06fd97ce167d" cx="921.93" cy="845.91" r="23.34"/></g><rect class="uuid-a357423c-16e6-4475-ae2d-c9e43a0ee55a" x="486.27" y="756.12" width="86.72" height="21.23" transform="translate(-161.58 141.74) rotate(-13.24)"/><polygon class="uuid-a357423c-16e6-4475-ae2d-c9e43a0ee55a" points="569.4 746.47 484.99 766.34 492.95 691.49 528.89 683.03 569.4 746.47"/><polygon class="uuid-a357423c-16e6-4475-ae2d-c9e43a0ee55a" points="557.04 802.36 520.98 810.85 524.39 778.88 539.74 775.26 557.04 802.36"/><circle class="uuid-23fcb8ee-b86e-42be-932e-1f62f6513a15" cx="519.63" cy="724.26" r="15.66"/><g class="uuid-23ffc822-65f9-42e4-b2e3-7dcb17b0fcee"><circle class="uuid-88d5b4eb-8bec-4c8e-b5eb-06fd97ce167d" cx="526.6" cy="727.13" r="15.66"/></g><rect class="uuid-a357423c-16e6-4475-ae2d-c9e43a0ee55a" x="138.29" y="606.49" width="148.5" height="125.03" rx="16.5" ry="16.5" transform="translate(559.38 58.72) rotate(47.24)"/><path class="uuid-a357423c-16e6-4475-ae2d-c9e43a0ee55a" d="M309.64,664.85l7.3,4.31c4.39,2.59,9.27,2.46,12.29-.33l17.27-15.97c3.01-2.79,3.52-7.65,1.29-12.22l-3.72-7.62"/><path class="uuid-a357423c-16e6-4475-ae2d-c9e43a0ee55a" d="M224.26,572.53l-3.72-7.62c-2.24-4.58-1.73-9.44,1.29-12.22l17.27-15.97c3.01-2.79,7.9-2.92,12.29-.33l7.3,4.31"/><circle class="uuid-a357423c-16e6-4475-ae2d-c9e43a0ee55a" cx="287.34" cy="599.83" r="66.62"/><ellipse class="uuid-5099fd13-9c83-49dc-a29f-546d0a588a30" cx="280.92" cy="605.75" rx="42.94" ry="64.91" transform="translate(-336.62 351.78) rotate(-42.76)"/><ellipse class="uuid-f8fb03cf-a1bb-4354-be5e-3f753195ca27" cx="289.96" cy="597.39" rx="42.94" ry="64.91" transform="translate(-328.54 355.7) rotate(-42.76)"/><polyline class="uuid-a357423c-16e6-4475-ae2d-c9e43a0ee55a" points="220.73 600.47 153.98 566.56 137.92 590.93 176.27 626.34"/><polyline class="uuid-a357423c-16e6-4475-ae2d-c9e43a0ee55a" points="283.33 668.17 311.94 737.36 286.39 751.46 254.08 710.47"/><path class="uuid-a357423c-16e6-4475-ae2d-c9e43a0ee55a" d="M191.23,616.91l-127.89,80.59-6.03-7.54c-4.52-5.64-12.46-7.19-18.76-3.64h0c-7.46,4.2-9.8,13.84-5.09,20.98l21.45,32.56c4.1,6.22,12.03,8.66,18.91,5.81l68.15-28.16"/><path class="uuid-a357423c-16e6-4475-ae2d-c9e43a0ee55a" d="M262.82,694.32l-90.31,121.21,7.05,6.6c5.28,4.94,6.19,12.98,2.17,18.99h0c-4.76,7.11-14.56,8.69-21.32,3.44l-30.78-23.92c-5.88-4.57-7.69-12.67-4.32-19.31l33.38-65.75"/><path class="uuid-a357423c-16e6-4475-ae2d-c9e43a0ee55a" d="M140.52,697.9c-1.98,7.37,2,18.48,10.67,27.86,8.67,9.37,19.44,14.21,26.94,12.81"/><polygon class="uuid-322edee2-666d-4c58-bb2e-2633d7eb305d" points="174.51 684.83 150.26 688.89 145.62 705.38 149.8 716.08 159.01 726.05 172.42 734.36 189.98 727.6 194.93 702.06 174.51 684.83"/><rect class="uuid-a357423c-16e6-4475-ae2d-c9e43a0ee55a" x="173.72" y="657.12" width="54.1" height="45.55" rx="6.01" ry="6.01" transform="translate(563.6 70.86) rotate(47.24)"/><path class="uuid-a357423c-16e6-4475-ae2d-c9e43a0ee55a" d="M198.62,677.57c-2.64,2.44-6.77,2.28-9.21-.36s-2.28-6.77.36-9.21c2.64-2.44,6.77-2.28,9.21.36,2.44,2.64,2.28,6.77-.36,9.21Z"/><line class="uuid-f8fb03cf-a1bb-4354-be5e-3f753195ca27" x1="218.96" y1="683.22" x2="202.66" y2="698.3"/><line class="uuid-f8fb03cf-a1bb-4354-be5e-3f753195ca27" x1="212.2" y1="675.91" x2="195.9" y2="690.99"/><path class="uuid-a357423c-16e6-4475-ae2d-c9e43a0ee55a" d="M135.63,550.8h4.94c8.23,0,14.9,6.68,14.9,14.9v9.87c0,8.23-6.68,14.9-14.9,14.9h-4.94c-10.95,0-19.84-8.89-19.84-19.84h0c0-10.95,8.89-19.84,19.84-19.84Z" transform="translate(332.14 18) rotate(32.94)"/><path class="uuid-a357423c-16e6-4475-ae2d-c9e43a0ee55a" d="M306.18,735.21h4.94c8.23,0,14.9,6.68,14.9,14.9v9.87c0,8.23-6.68,14.9-14.9,14.9h-4.94c-10.95,0-19.84-8.89-19.84-19.84h0c0-10.95,8.89-19.84,19.84-19.84Z" transform="translate(-211.56 1384.17) rotate(-118.47)"/><path class="uuid-322edee2-666d-4c58-bb2e-2633d7eb305d" d="M198.88,967.42c-20.94,0-42.9-4.47-63.49-12.93-3.72-1.53-7.41-3.19-10.95-4.94-31.75-15.65-55.41-39.17-66.64-66.24-12.81-30.91-10.44-69.84,6.51-106.8,23.22-50.65,69.84-90.65,127.89-109.76.64-.21,1.31-.32,1.99-.32,2.75,0,5.18,1.76,6.04,4.37,1.1,3.33-.72,6.93-4.05,8.03-54.71,18.01-98.56,55.54-120.31,102.98-15.48,33.76-17.78,68.98-6.32,96.63,11.19,27,36.95,50.44,70.67,64.29,19.11,7.85,39.39,12,58.66,12,15.69,0,29.99-2.67,42.5-7.94,51.29-21.57,79.2-64.11,106.18-105.25,16.63-25.35,32.33-49.28,52.98-68.33,43.94-40.51,92.96-52.01,118.27-55.26.27-.04.55-.05.82-.05,3.19,0,5.9,2.39,6.3,5.55.22,1.68-.24,3.35-1.27,4.69-1.04,1.34-2.54,2.2-4.22,2.42-23.81,3.06-69.92,13.88-111.27,52-19.51,17.99-34.79,41.29-50.97,65.95-28.03,42.73-57.02,86.92-111.88,110-14.05,5.91-30.01,8.91-47.43,8.91Z"/><path class="uuid-88d5b4eb-8bec-4c8e-b5eb-06fd97ce167d" d="M194.19,668.43c1.83,0,3.53,1.16,4.14,3,.75,2.29-.49,4.75-2.78,5.5-55.23,18.18-99.52,56.1-121.5,104.04-15.71,34.26-18.02,70.07-6.35,98.23,11.4,27.49,37.55,51.32,71.76,65.37,19.65,8.07,40.16,12.15,59.42,12.15,15.62,0,30.42-2.68,43.28-8.09,51.85-21.81,79.93-64.61,107.08-106,16.55-25.24,32.19-49.07,52.67-67.95,43.53-40.13,92.09-51.53,117.17-54.75.19-.02.38-.04.56-.04,2.16,0,4.03,1.6,4.32,3.8.31,2.39-1.38,4.57-3.77,4.88-24.05,3.09-70.62,14.02-112.37,52.51-19.69,18.15-35.04,41.55-51.29,66.33-27.87,42.48-56.68,86.41-110.99,109.25-13.9,5.85-29.87,8.75-46.66,8.75-20.41,0-42.05-4.29-62.73-12.78-3.7-1.52-7.31-3.15-10.83-4.88-31.03-15.29-54.64-38.61-65.67-65.21-12.6-30.4-10.24-68.74,6.48-105.2,22.99-50.14,69.17-89.76,126.7-108.69.45-.15.91-.22,1.36-.22M194.19,664.43c-.89,0-1.77.14-2.62.42-58.58,19.28-105.63,59.67-129.08,110.82-17.18,37.47-19.56,76.98-6.54,108.4,11.41,27.52,35.42,51.41,67.6,67.27,3.59,1.77,7.32,3.45,11.08,5,20.83,8.56,43.05,13.08,64.25,13.08,17.69,0,33.91-3.05,48.21-9.06,55.43-23.31,84.59-67.76,112.78-110.75,16.11-24.56,31.33-47.76,50.65-65.58,40.94-37.74,86.6-48.46,110.17-51.48,2.21-.28,4.19-1.41,5.55-3.18,1.36-1.77,1.96-3.96,1.68-6.17-.53-4.16-4.1-7.29-8.28-7.29-.36,0-.72.02-1.07.07-25.55,3.28-75.02,14.89-119.37,55.77-20.84,19.21-36.6,43.25-53.29,68.69-26.83,40.9-54.56,83.18-105.29,104.51-12.27,5.16-26.31,7.78-41.73,7.78-19,0-39.02-4.1-57.9-11.85-33.23-13.65-58.6-36.69-69.59-63.21-11.25-27.14-8.96-61.78,6.29-95.03,21.52-46.93,64.94-84.08,119.11-101.91,2.12-.7,3.84-2.18,4.85-4.17,1.01-1.99,1.18-4.26.48-6.38-1.13-3.44-4.32-5.75-7.94-5.75h0Z"/><path class="uuid-322edee2-666d-4c58-bb2e-2633d7eb305d" d="M765.78,193.09c0-12.18-3.43-15.6-15.6-15.6,12.18,0,15.6-3.43,15.6-15.6,0,12.18,3.43,15.6,15.6,15.6-12.18,0-15.6,3.43-15.6,15.6Z"/><path class="uuid-5e74a752-a3b0-49be-8006-b249e2c26a26" d="M765.78,193.09c0-12.18-3.43-15.6-15.6-15.6,12.18,0,15.6-3.43,15.6-15.6,0,12.18,3.43,15.6,15.6,15.6-12.18,0-15.6,3.43-15.6,15.6Z"/><path class="uuid-322edee2-666d-4c58-bb2e-2633d7eb305d" d="M1366.03,390.3c0-24.36-6.85-31.21-31.21-31.21,24.36,0,31.21-6.85,31.21-31.21,0,24.36,6.85,31.21,31.21,31.21-24.36,0-31.21,6.85-31.21,31.21Z"/><path class="uuid-5e74a752-a3b0-49be-8006-b249e2c26a26" d="M1366.03,390.3c0-24.36-6.85-31.21-31.21-31.21,24.36,0,31.21-6.85,31.21-31.21,0,24.36,6.85,31.21,31.21,31.21-24.36,0-31.21,6.85-31.21,31.21Z"/><path class="uuid-322edee2-666d-4c58-bb2e-2633d7eb305d" d="M1337.04,1415.6c0-24.36-6.85-31.21-31.21-31.21,24.36,0,31.21-6.85,31.21-31.21,0,24.36,6.85,31.21,31.21,31.21-24.36,0-31.21,6.85-31.21,31.21Z"/><path class="uuid-322edee2-666d-4c58-bb2e-2633d7eb305d" d="M208.77,1139.68c0-24.36-6.85-31.21-31.21-31.21,24.36,0,31.21-6.85,31.21-31.21,0,24.36,6.85,31.21,31.21,31.21-24.36,0-31.21,6.85-31.21,31.21Z"/><path class="uuid-5e74a752-a3b0-49be-8006-b249e2c26a26" d="M208.77,1139.68c0-24.36-6.85-31.21-31.21-31.21,24.36,0,31.21-6.85,31.21-31.21,0,24.36,6.85,31.21,31.21,31.21-24.36,0-31.21,6.85-31.21,31.21Z"/><path class="uuid-322edee2-666d-4c58-bb2e-2633d7eb305d" d="M378.31,437.11c0-12.18-3.43-15.6-15.6-15.6,12.18,0,15.6-3.43,15.6-15.6,0,12.18,3.43,15.6,15.6,15.6-12.18,0-15.6,3.43-15.6,15.6Z"/><path class="uuid-5e74a752-a3b0-49be-8006-b249e2c26a26" d="M378.31,437.11c0-12.18-3.43-15.6-15.6-15.6,12.18,0,15.6-3.43,15.6-15.6,0,12.18,3.43,15.6,15.6,15.6-12.18,0-15.6,3.43-15.6,15.6Z"/><path class="uuid-322edee2-666d-4c58-bb2e-2633d7eb305d" d="M844.37,421.5c0-24.36-6.85-31.21-31.21-31.21,24.36,0,31.21-6.85,31.21-31.21,0,24.36,6.85,31.21,31.21,31.21-24.36,0-31.21,6.85-31.21,31.21Z"/><path class="uuid-322edee2-666d-4c58-bb2e-2633d7eb305d" d="M1337.04,764.39c0-24.36-6.85-31.21-31.21-31.21,24.36,0,31.21-6.85,31.21-31.21,0,24.36,6.85,31.21,31.21,31.21-24.36,0-31.21,6.85-31.21,31.21Z"/><path class="uuid-5e74a752-a3b0-49be-8006-b249e2c26a26" d="M1337.04,764.39c0-24.36-6.85-31.21-31.21-31.21,24.36,0,31.21-6.85,31.21-31.21,0,24.36,6.85,31.21,31.21,31.21-24.36,0-31.21,6.85-31.21,31.21Z"/><path class="uuid-322edee2-666d-4c58-bb2e-2633d7eb305d" d="M733.6,1360.94c0-12.18-3.43-15.6-15.6-15.6,12.18,0,15.6-3.43,15.6-15.6,0,12.18,3.43,15.6,15.6,15.6-12.18,0-15.6,3.43-15.6,15.6Z"/><path class="uuid-5e74a752-a3b0-49be-8006-b249e2c26a26" d="M733.6,1360.94c0-12.18-3.43-15.6-15.6-15.6,12.18,0,15.6-3.43,15.6-15.6,0,12.18,3.43,15.6,15.6,15.6-12.18,0-15.6,3.43-15.6,15.6Z"/><path class="uuid-322edee2-666d-4c58-bb2e-2633d7eb305d" d="M569.4,534.54c0-12.18-3.43-15.6-15.6-15.6,12.18,0,15.6-3.43,15.6-15.6,0,12.18,3.43,15.6,15.6,15.6-12.18,0-15.6,3.43-15.6,15.6Z"/><path class="uuid-5e74a752-a3b0-49be-8006-b249e2c26a26" d="M569.4,534.54c0-12.18-3.43-15.6-15.6-15.6,12.18,0,15.6-3.43,15.6-15.6,0,12.18,3.43,15.6,15.6,15.6-12.18,0-15.6,3.43-15.6,15.6Z"/><path class="uuid-322edee2-666d-4c58-bb2e-2633d7eb305d" d="M1066.49,628.6c0-24.36-6.85-31.21-31.21-31.21,24.36,0,31.21-6.85,31.21-31.21,0,24.36,6.85,31.21,31.21,31.21-24.36,0-31.21,6.85-31.21,31.21Z"/><path class="uuid-5e74a752-a3b0-49be-8006-b249e2c26a26" d="M1066.49,628.6c0-24.36-6.85-31.21-31.21-31.21,24.36,0,31.21-6.85,31.21-31.21,0,24.36,6.85,31.21,31.21,31.21-24.36,0-31.21,6.85-31.21,31.21Z"/><path class="uuid-322edee2-666d-4c58-bb2e-2633d7eb305d" d="M1021.2,1067.96c0-24.36-6.85-31.21-31.21-31.21,24.36,0,31.21-6.85,31.21-31.21,0,24.36,6.85,31.21,31.21,31.21-24.36,0-31.21,6.85-31.21,31.21Z"/><path class="uuid-322edee2-666d-4c58-bb2e-2633d7eb305d" d="M723.31,782.34c0-12.18-3.43-15.6-15.6-15.6,12.18,0,15.6-3.43,15.6-15.6,0,12.18,3.43,15.6,15.6,15.6-12.18,0-15.6,3.43-15.6,15.6Z"/><path class="uuid-5e74a752-a3b0-49be-8006-b249e2c26a26" d="M723.31,782.34c0-12.18-3.43-15.6-15.6-15.6,12.18,0,15.6-3.43,15.6-15.6,0,12.18,3.43,15.6,15.6,15.6-12.18,0-15.6,3.43-15.6,15.6Z"/></g></svg>